<?xml version="1.0" encoding="utf-8"?>
<!-- Generator: Adobe Illustrator 16.0.0, SVG Export Plug-In . SVG Version: 6.00 Build 0)  -->
<!DOCTYPE svg PUBLIC "-//W3C//DTD SVG 1.1//EN" "http://www.w3.org/Graphics/SVG/1.1/DTD/svg11.dtd">
<svg version="1.1" id="Layer_2" xmlns="http://www.w3.org/2000/svg" xmlns:xlink="http://www.w3.org/1999/xlink" x="0px" y="0px"
	 width="129.2px" height="59.7px" viewBox="0 0 129.2 59.7" style="enable-background:new 0 0 129.2 59.7;" xml:space="preserve">
<style type="text/css">
<![CDATA[
	.st0{fill:#FFFFFF;}
]]>
</style>
<g id="Layer_1">
	<g>
		<g>
			<path class="st0" d="M92.1,14.7c-1.1-0.4-2.5-0.7-3.5-1.4c-1.1-0.8-2.1-0.7-3.3-0.3c-0.8,0.3-1.7,0.5-2.5,0.4
				c-2.6-0.2-5.2-0.5-7.8-0.9c-6.6-1-13.1-1.8-19.7-1.9c-0.4,0-0.8,0-1.1-0.1c0-0.1,0-0.2,0-0.3c0.6-0.1,1.2-0.2,1.9-0.4
				c-0.8-0.4-1.6-0.8-2.3-1.1c-1.4-0.6-2.2-1.6-2.4-3.1c-0.2-1.5-0.5-3.1-0.5-4.7c0-0.9-0.4-1.1-1.1-0.9c-0.9,0.4-2,0.8-2.7,1.6
				c-1.8,1.9-3.4,4-5,6c-1.1,1.5-2.3,2.5-4.3,2.7c-4.2,0.4-8.4,1-12.6,1.5c-3.5,0.4-7,1-10.6,1.3c-3.6,0.3-7.2,0.5-10.9,0.8
				c-1,0.1-2.1,0.3-3.1,0.5c-0.6,0.1-1.1,0.6-0.5,1.1c1.1,0.8,2.4,1.4,3.7,2c0.1-0.1,0.1-0.2,0.2-0.3c-0.2-0.2-0.5-0.3-0.7-0.5
				c0-0.1,0.1-0.2,0.1-0.3c0.6,0.2,1.1,0.5,1.7,0.7c0.4,0.1,0.9,0.3,1.1,0.2c1.2-0.8,1.8,0.1,2.4,0.8c0.8,1.1,3.1,1.7,4.1,1
				c0.6-0.4,0.9-0.4,1.4,0.2c0.8,0.9,1.5,0.7,1.7-0.5c0.2-1,0.8-0.9,1.6-0.7c-0.4,0.3-0.8,0.5-1.3,0.9c1.1,0.6,2.1,1,3,1.5
				c0.3-0.2,0.8-0.4,1.1-0.6c-0.3-0.4-0.6-0.7-0.9-1.1c1.6,0.2,3.3,0,3.9,2c0.2-0.5,0.2-0.9,0.3-1.3c0.2-0.3,0.5-0.5,0.8-0.8
				c0.2,0.3,0.4,0.7,0.5,1c0.1,0.3,0,0.7-0.1,1.1c0.1,0,0.2,0,0.4,0.1c0.1-0.5,0.1-1,0.3-1.4c0.1-0.3,0.5-0.4,0.7-0.7
				c0.1,0.3,0.3,0.6,0.4,0.8c0,0.5-0.1,0.9-0.1,1.4c0.5-2.2,0.8-2.6,1.9-1.7c0.4-0.2,0.7-0.4,1.3-0.8c-0.2,1-0.4,1.7-0.6,2.6
				c0.7-0.9,1.2-1.6,1.7-2.2c0.1,0,0.3,0.1,0.4,0.1c0,0.3,0.1,0.7,0.1,1c-0.2,1.2-1.1,1.5-2.1,1.8c-0.3,0.1-0.6,0.4-0.8,0.6
				c0.2,0.2,0.5,0.5,0.7,0.7c0.8,0.6,1.7,1.2,2.5,1.8c-0.1,0.1-0.1,0.2-0.2,0.3c-0.4,0-0.9-0.1-1.4-0.1c0.6,0.9,1.1,1.6,1.5,2.4
				c1.5,2.4,3.3,4.5,5.7,6.1c1.6,1.1,1.9,1,2.3-0.8c0-0.1,0.1-0.1,0.2-0.2c0.5,0.2,1,0.4,1.5,0.6c0.1-0.1,0.2-0.1,0.3-0.2
				c-1.1-3.1-2.2-6.2-3.3-9.4c-0.6-0.1-1.5-0.2-2-1.4c0.9-0.1,1.7-0.2,2.4-0.2c0-0.1,0-0.2,0-0.3c-0.4-0.1-0.9-0.1-1.3-0.3
				c-0.4-0.2-0.8-0.7-1.2-1c0.4-0.2,0.9-0.4,1.3-0.5c0.5-0.1,1.1,0.1,1.6-0.1c1.3-0.4,2.6-0.9,4-1c1-0.1,1.9-0.3,2.9-0.4
				c1.5-0.1,3.1-0.1,4.7-0.2c2.1-0.2,4.1-0.6,6.2-0.7c1.5-0.1,3.1,0,4.6,0c1.2,0,2.4-0.1,3.6,0c0.9,0,2,0.3,2.8,0.1
				c2.1-0.6,4.1-0.2,6.2-0.3c3.3,0,6.6,0.1,9.9,0c3.9-0.2,7.8-0.5,11.6,0.7c0.1,0,0.3,0,0.4-0.1c0.5-0.1,0.9-0.1,1.4-0.2
				c1.3-0.1,2.6-0.1,3.8-0.4c1.7-0.5,3.3-1.5,5-1.9c2.3-0.6,4.7-0.9,7.1-1.3c0.1,0.1,0.2,0.1,0.2,0.2c-0.2,0.3-0.3,0.7-0.5,0.8
				c-1,0.5-2.1,0.9-3.1,1.3c-2.8,1.1-5.7,2.2-8.5,3.4c-1,0.4-1.9,0.9-2.9,1.3c-0.4,0.2-1,0.1-1.5,0.1c1.5,2.7,6.2,6.1,8.1,5.4
				c-0.3-1.3-0.4-2.7-0.9-3.9c-0.4-1.1-0.1-1.7,0.9-2.2c0.5-0.2,0.9-0.5,1.4-0.7c4.2-1.5,8.4-3,12.6-4.6c0.5-0.2,1-0.6,1.7-1.1
				c0.3,0.2,0.9,0.5,1.6,0.9c0.7,0.4,1.1,0.2,1.6-0.4c1-0.9,2.1-1.8,3.3-2.4c0.8-0.5,1.6-0.9,2-1.9c-0.7-0.1-1.3-0.4-1.9-0.4
				c-1.7,0.2-3.5,0.5-5.2,0.7c-4.2,0.6-8.5,1.3-12.8,1.8c-3.7,0.5-7.4,1.1-10.9,2.5c-0.6,0.2-1.2,0.5-1.8,0.4
				c-2.2-0.1-4.4-0.4-6.6-0.6c0-0.1,0-0.2,0-0.3C90.8,14.7,91.6,14.7,92.1,14.7z M63.4,23.7c0.9,0.2,1.6,0.3,2.4,0.4
				c0,0,0.1-0.1,0.1-0.2c-0.3,0-0.6-0.1-1-0.1c0.5-0.4,1.1-0.5,1.6-0.7c0.5-0.2,0.9-0.4,1.4-0.7C65.6,21.8,64.3,22.1,63.4,23.7z
				 M85.6,20.1c-1,0-1.8-0.2-1.9,1c0,0.3-0.5,0.5-0.9,0.7c-0.3,0.2-0.7,0.2-1.1,0.3c0,0.1,0,0.2,0,0.3c0.5,0,1.2,0.3,1.5,0.1
				C84,21.9,84.7,21.1,85.6,20.1z"/>
			<path class="st0" d="M92.1,14.7c-0.6,0-1.3,0-2,0c0,0.1,0,0.2,0,0.3c2.2,0.2,4.4,0.4,6.6,0.6c0.6,0,1.2-0.2,1.8-0.4
				c3.5-1.4,7.2-2,10.9-2.5c4.3-0.5,8.5-1.2,12.8-1.8c1.7-0.3,3.4-0.6,5.2-0.7c0.6-0.1,1.2,0.2,1.9,0.4c-0.4,1.1-1.2,1.5-2,1.9
				c-1.2,0.6-2.3,1.5-3.3,2.4c-0.6,0.5-1,0.8-1.6,0.4c-0.6-0.4-1.2-0.7-1.6-0.9c-0.7,0.5-1.2,0.9-1.7,1.1c-4.2,1.6-8.4,3.1-12.6,4.6
				c-0.5,0.2-0.9,0.4-1.4,0.7c-0.9,0.5-1.3,1.1-0.9,2.2c0.4,1.3,0.6,2.6,0.9,3.9c-1.9,0.8-6.5-2.7-8.1-5.4c0.5,0,1.1,0.1,1.5-0.1
				c1-0.4,1.9-0.9,2.9-1.3c2.8-1.1,5.7-2.3,8.5-3.4c1-0.4,2.1-0.8,3.1-1.3c0.2-0.1,0.3-0.5,0.5-0.8c-0.1-0.1-0.2-0.1-0.2-0.2
				c-2.4,0.4-4.8,0.7-7.1,1.3c-1.7,0.4-3.3,1.4-5,1.9c-1.2,0.4-2.6,0.3-3.8,0.4c-0.5,0-0.9,0.1-1.4,0.2c-0.1,0-0.3,0.1-0.4,0.1
				c-3.8-1.2-7.7-0.9-11.6-0.7c-3.3,0.2-6.6,0-9.9,0c-2.1,0-4.1-0.4-6.2,0.3c-0.8,0.3-1.9-0.1-2.8-0.1c-1.2,0-2.4,0-3.6,0
				c-1.6,0-3.1-0.2-4.6,0c-2.1,0.1-4.1,0.5-6.2,0.7c-1.5,0.1-3.1,0.1-4.7,0.2c-1,0.1-1.9,0.3-2.9,0.4c-1.4,0.1-2.7,0.6-4,1
				c-0.5,0.2-1.1,0-1.6,0.1c-0.5,0.1-0.9,0.3-1.3,0.5c0.4,0.3,0.7,0.8,1.2,1c0.4,0.2,0.9,0.2,1.3,0.3c0,0.1,0,0.2,0,0.3
				c-0.8,0.1-1.6,0.1-2.4,0.2c0.5,1.2,1.4,1.3,2,1.4c1.1,3.3,2.2,6.3,3.3,9.4c-0.1,0.1-0.2,0.1-0.3,0.2c-0.5-0.2-1-0.4-1.5-0.6
				c-0.1,0.1-0.2,0.1-0.2,0.2c-0.5,1.8-0.7,1.9-2.3,0.8c-2.3-1.6-4.2-3.7-5.7-6.1c-0.5-0.8-0.9-1.5-1.5-2.4c0.6,0,1,0.1,1.4,0.1
				c0.1-0.1,0.1-0.2,0.2-0.3c-0.9-0.6-1.7-1.2-2.5-1.8c-0.3-0.2-0.5-0.5-0.7-0.7c0.3-0.2,0.5-0.5,0.8-0.6c1-0.3,1.9-0.6,2.1-1.8
				c0-0.3,0-0.7-0.1-1c-0.1,0-0.3-0.1-0.4-0.1c-0.5,0.7-1,1.4-1.7,2.2c0.2-0.9,0.4-1.6,0.6-2.6c-0.6,0.4-0.9,0.6-1.3,0.8
				c-1.1-0.8-1.4-0.5-1.9,1.7c0-0.5,0.1-0.9,0.1-1.4c0-0.3-0.2-0.6-0.4-0.8c-0.2,0.2-0.6,0.4-0.7,0.7c-0.2,0.4-0.2,0.9-0.3,1.4
				c-0.1,0-0.2,0-0.4-0.1c0-0.4,0.2-0.7,0.1-1.1c-0.1-0.4-0.3-0.7-0.5-1c-0.3,0.3-0.6,0.5-0.8,0.8c-0.2,0.3-0.1,0.7-0.3,1.3
				c-0.6-2-2.3-1.7-3.9-2c0.3,0.3,0.6,0.7,0.9,1.1c-0.3,0.2-0.7,0.4-1.1,0.6c-1-0.5-1.9-1-3-1.5c0.5-0.4,0.9-0.6,1.3-0.9
				c-0.7-0.2-1.4-0.3-1.6,0.7c-0.2,1.1-0.9,1.3-1.7,0.5c-0.5-0.5-0.8-0.6-1.4-0.2c-1.1,0.7-3.3,0.1-4.1-1c-0.6-0.7-1.2-1.6-2.4-0.8
				c-0.2,0.2-0.7-0.1-1.1-0.2c-0.6-0.2-1.1-0.5-1.7-0.7c0,0.1-0.1,0.2-0.1,0.3c0.2,0.2,0.5,0.3,0.7,0.5C4.1,17.4,4,17.5,4,17.6
				c-1.2-0.7-2.5-1.2-3.7-2c-0.7-0.5-0.1-0.9,0.5-1.1c1-0.2,2.1-0.4,3.1-0.5c3.6-0.3,7.2-0.4,10.9-0.8c3.5-0.3,7.1-0.9,10.6-1.3
				c4.2-0.5,8.4-1.1,12.6-1.5c1.9-0.2,3.2-1.2,4.3-2.7c1.6-2.1,3.2-4.1,5-6c0.7-0.7,1.7-1.1,2.7-1.6c0.7-0.3,1,0,1.1,0.9
				c0,1.6,0.3,3.1,0.5,4.7c0.2,1.5,1,2.5,2.4,3.1c0.8,0.3,1.5,0.7,2.3,1.1c-0.7,0.1-1.3,0.2-1.9,0.4c0,0.1,0,0.2,0,0.3
				c0.4,0,0.8,0.1,1.1,0.1c6.6,0.1,13.2,1,19.7,1.9c2.6,0.4,5.2,0.7,7.8,0.9c0.8,0.1,1.7-0.2,2.5-0.4c1.2-0.4,2.1-0.5,3.3,0.3
				C89.7,14,91,14.3,92.1,14.7z"/>
			<path class="st0" d="M63.4,23.7c0.8-1.6,2.2-1.9,4.5-1.2c-0.5,0.2-0.9,0.5-1.4,0.7c-0.5,0.2-1.1,0.3-1.6,0.7c0.3,0,0.6,0.1,1,0.1
				c-0.1,0.1-0.1,0.2-0.1,0.2C65,24,64.3,23.8,63.4,23.7z"/>
			<path class="st0" d="M85.6,20.1c-0.9,1-1.6,1.8-2.4,2.5c-0.3,0.2-1,0-1.5-0.1c0-0.1,0-0.2,0-0.3c0.4-0.1,0.8-0.2,1.1-0.3
				c0.3-0.2,0.9-0.4,0.9-0.7C83.8,19.9,84.6,20.1,85.6,20.1z"/>
		</g>
	</g>
</g>
<g>
	<path class="st0" d="M0.4,54.3c0.8,0.9,1.9,1.4,3.2,1.4c1.7,0,2.8-0.9,2.8-2.2c0-1.4-0.9-1.8-2-2.3l-1.7-0.7
		c-0.9-0.4-2.2-1-2.2-2.5c0-1.5,1.3-2.5,3-2.5c1.3,0,2.3,0.6,2.9,1.2L6.2,47c-0.6-0.7-1.5-1.1-2.6-1.1c-1.5,0-2.5,0.8-2.5,2
		c0,1.3,1.1,1.8,1.9,2.1l1.7,0.7c1.2,0.5,2.3,1.1,2.3,2.7c0,1.6-1.3,2.7-3.3,2.7c-1.6,0-2.8-0.7-3.6-1.6L0.4,54.3z"/>
	<path class="st0" d="M7.9,48.5h0.6l1.5,5.1c0.2,0.7,0.4,1.3,0.6,2h0.1c0.2-0.7,0.4-1.3,0.6-2l1.5-5.1h0.7l1.5,5.1
		c0.2,0.7,0.4,1.3,0.6,2h0.1c0.2-0.7,0.4-1.3,0.6-2l1.5-5.1h0.5L15.8,56h-0.7l-1.5-4.9c-0.2-0.7-0.4-1.4-0.6-2.1H13
		c-0.2,0.7-0.4,1.4-0.6,2.2L10.9,56h-0.6L7.9,48.5z"/>
	<path class="st0" d="M19.7,46c0-0.3,0.3-0.5,0.6-0.5s0.6,0.2,0.6,0.5c0,0.3-0.3,0.5-0.6,0.5S19.7,46.4,19.7,46z M20,48.5h0.5V56H20
		V48.5z"/>
	<path class="st0" d="M23.6,48.5h0.4l0.1,1.2h0c0.7-0.8,1.6-1.4,2.5-1.4c1.3,0,1.9,0.6,2.1,1.6c0.9-1,1.8-1.6,2.7-1.6
		c1.5,0,2.3,0.9,2.3,2.9V56h-0.5v-4.8c0-1.7-0.6-2.5-1.9-2.5c-0.8,0-1.6,0.5-2.5,1.5V56h-0.5v-4.8c0-1.7-0.6-2.5-1.9-2.5
		c-0.7,0-1.6,0.5-2.5,1.5V56h-0.5V48.5z"/>
	<path class="st0" d="M36.7,48.5h0.4l0.1,1.2h0c0.7-0.8,1.6-1.4,2.5-1.4c1.3,0,1.9,0.6,2.1,1.6c0.9-1,1.8-1.6,2.7-1.6
		c1.5,0,2.3,0.9,2.3,2.9V56h-0.5v-4.8c0-1.7-0.6-2.5-1.9-2.5c-0.8,0-1.6,0.5-2.5,1.5V56h-0.5v-4.8c0-1.7-0.6-2.5-1.9-2.5
		c-0.7,0-1.6,0.5-2.5,1.5V56h-0.5V48.5z"/>
	<path class="st0" d="M49.5,46c0-0.3,0.3-0.5,0.6-0.5s0.6,0.2,0.6,0.5c0,0.3-0.3,0.5-0.6,0.5S49.5,46.4,49.5,46z M49.8,48.5h0.5V56
		h-0.5V48.5z"/>
	<path class="st0" d="M53.4,48.5h0.4l0.1,1.2h0c0.8-0.8,1.6-1.4,2.7-1.4c1.6,0,2.3,0.9,2.3,2.9V56h-0.5v-4.8c0-1.7-0.6-2.5-1.9-2.5
		c-1,0-1.7,0.5-2.7,1.5V56h-0.5V48.5z"/>
	<path class="st0" d="M62.5,55.7L62.5,55.7c-0.4-0.3-0.7-0.7-0.7-1.3c0-0.7,0.5-1.2,0.8-1.4V53c-0.5-0.4-1-1.2-1-2.1
		c0-1.5,1.2-2.6,2.7-2.6c0.4,0,0.8,0.1,1,0.2h2.6v0.4h-1.9c0.6,0.4,0.9,1.2,0.9,2c0,1.5-1.2,2.7-2.7,2.7c-0.5,0-1-0.1-1.3-0.3
		c-0.4,0.3-0.7,0.6-0.7,1.2c0,0.6,0.3,1,1.5,1h1.7c1.7,0,2.5,0.5,2.5,1.7c0,1.3-1.4,2.5-3.6,2.5c-2,0-3.2-0.8-3.2-2.1
		C61.3,56.9,61.8,56.2,62.5,55.7z M64.5,59.2c1.9,0,3-1,3-2c0-0.9-0.7-1.2-1.9-1.2h-1.8c-0.1,0-0.5,0-0.9-0.1
		c-0.8,0.5-1.1,1.1-1.1,1.7C61.8,58.5,62.8,59.2,64.5,59.2z M66.5,50.9c0-1.3-1-2.2-2.1-2.2c-1.2,0-2.1,0.8-2.1,2.2
		c0,1.3,1,2.2,2.1,2.2S66.5,52.2,66.5,50.9z"/>
	<path class="st0" d="M72.6,59c1,0,1.7-0.9,2.1-2.1l0.2-0.7l-3.2-7.7h0.6l2,4.9c0.3,0.6,0.6,1.4,0.9,2.1h0.1
		c0.3-0.7,0.5-1.5,0.7-2.1l1.8-4.9h0.5L75,57c-0.4,1.2-1.2,2.4-2.5,2.4c-0.3,0-0.6-0.1-0.7-0.2l0.1-0.4C72.1,58.9,72.3,59,72.6,59z"
		/>
	<path class="st0" d="M82.7,48.3c1.9,0,3.4,1.4,3.4,4c0,2.5-1.6,3.9-3.4,3.9c-1.9,0-3.4-1.4-3.4-3.9C79.2,49.7,80.8,48.3,82.7,48.3z
		 M82.7,55.7c1.7,0,2.9-1.4,2.9-3.5s-1.3-3.5-2.9-3.5c-1.7,0-2.9,1.4-2.9,3.5S81,55.7,82.7,55.7z"/>
	<path class="st0" d="M88.4,48.5h0.5v4.8c0,1.7,0.6,2.5,1.9,2.5c1,0,1.7-0.5,2.7-1.6v-5.6h0.5V56h-0.4l-0.1-1.3h0
		c-0.8,0.9-1.6,1.5-2.7,1.5c-1.6,0-2.3-0.9-2.3-2.9V48.5z"/>
	<path class="st0" d="M97.1,48.5h0.4l0.1,1.4h0c0.5-0.9,1.3-1.6,2.2-1.6c0.3,0,0.5,0,0.7,0.2l-0.1,0.4c-0.3-0.1-0.4-0.1-0.7-0.1
		c-0.7,0-1.6,0.5-2.2,2V56h-0.5V48.5z"/>
	<path class="st0" d="M104.1,48.5h0.6l1.5,5.1c0.2,0.7,0.4,1.3,0.6,2h0.1c0.2-0.7,0.4-1.3,0.6-2l1.5-5.1h0.7l1.5,5.1
		c0.2,0.7,0.4,1.3,0.6,2h0.1c0.2-0.7,0.4-1.3,0.6-2l1.5-5.1h0.5L112,56h-0.7l-1.5-4.9c-0.2-0.7-0.4-1.4-0.6-2.1h-0.1
		c-0.2,0.7-0.4,1.4-0.7,2.2L107,56h-0.6L104.1,48.5z"/>
	<path class="st0" d="M120.7,51.3c0-1.2-0.3-2.6-1.9-2.6c-1.1,0-2,0.5-2.5,0.9l-0.3-0.4c0.5-0.3,1.6-1,2.8-1c1.8,0,2.4,1.3,2.4,2.8
		V56h-0.4l-0.1-1h0c-0.8,0.6-1.8,1.2-2.8,1.2c-1.2,0-2.2-0.6-2.2-2C115.6,52.5,117.2,51.7,120.7,51.3z M117.8,55.7
		c0.9,0,1.8-0.4,2.8-1.3v-2.7c-3.4,0.4-4.6,1.1-4.6,2.4C116.1,55.3,116.9,55.7,117.8,55.7z"/>
	<path class="st0" d="M123.6,59c1,0,1.7-0.9,2.1-2.1l0.2-0.7l-3.2-7.7h0.6l2,4.9c0.3,0.6,0.6,1.4,0.9,2.1h0.1
		c0.3-0.7,0.5-1.5,0.7-2.1l1.8-4.9h0.5l-3.1,8.6c-0.4,1.2-1.2,2.4-2.5,2.4c-0.3,0-0.6-0.1-0.7-0.2l0.1-0.4
		C123.1,58.9,123.4,59,123.6,59z"/>
</g>
</svg>
